<svg data-v-423bf9ae="" xmlns="http://www.w3.org/2000/svg" viewBox="0 0 476 90" class="iconLeft"><!----><!----><!----><g data-v-423bf9ae="" id="29e06b0e-89b9-420c-ad4e-7f3b7c8d290c" fill="#688EE6" transform="matrix(5.314436912536621,0,0,5.314436912536621,120.04784393310547,0.06643631309270859)"><path d="M5.80 3.23C6.27 3.23 6.48 3.49 6.48 3.86C6.48 4.66 5.56 6.03 4.98 6.68C5.10 6.92 5.26 7.00 5.42 7.00C6.19 7.00 7.04 5.11 7.04 4.02C7.04 3.15 6.51 2.81 5.75 2.81C3.09 2.81 0 6.99 0 10.68C0 12.39 0.77 14.10 2.76 14.10C4.63 14.10 6.16 12.59 7.10 10.75L6.90 10.61C6.16 12.21 4.58 13.62 3.09 13.62C1.68 13.62 1.12 12.31 1.12 10.92C1.12 7.77 3.78 3.23 5.80 3.23ZM10.08 12.33C10.08 12.84 10.40 13.22 11.05 13.22C12.12 13.22 13.15 12.15 13.73 10.78L13.55 10.61C12.99 11.83 12.00 12.85 11.37 12.85C11.13 12.85 10.95 12.70 10.95 12.32C10.95 11.63 11.55 10.84 11.55 9.97C11.55 9.35 11.26 8.71 10.49 8.71C9.24 8.71 8.30 10.42 7.64 12.33C7.63 12.21 7.62 12.07 7.62 11.86C7.62 11.10 7.78 9.93 8.13 9.10C9.79 8.11 11.35 5.07 11.35 3.77C11.35 3.39 11.23 2.88 10.89 2.88C9.67 2.88 6.71 9.28 6.71 11.96C6.71 12.70 6.93 13.41 7.28 13.41C8.08 13.41 8.60 9.55 9.98 9.55C10.28 9.55 10.51 9.73 10.51 10.22C10.51 10.89 10.08 11.75 10.08 12.33ZM10.82 4.02C10.86 4.02 10.88 4.05 10.88 4.13C10.88 4.84 9.60 7.52 8.32 8.55C9.02 6.27 10.54 4.02 10.82 4.02ZM17.53 8.69C17.53 8.01 17.09 7.84 16.66 7.84C15.01 7.84 13.10 10.21 13.10 11.87C13.10 12.78 13.68 13.50 14.81 13.50C16.20 13.50 17.65 12.42 18.41 10.74L18.24 10.61C17.54 11.96 16.30 13.09 15.11 13.09C14.24 13.09 14 12.49 14 11.91C14 11.77 14.01 11.59 14.06 11.41C15.65 11.26 17.53 10.12 17.53 8.69ZM16.62 8.27C16.86 8.27 16.91 8.39 16.91 8.60C16.91 9.80 15.12 10.79 14.13 11.14C14.50 9.81 15.72 8.27 16.62 8.27ZM18.12 11.34C18.41 10.84 18.93 9.76 19.36 8.65C19.71 8.90 20.15 9.11 20.15 9.72C20.15 10.46 19.38 11.51 19.38 12.33C19.38 12.88 19.77 13.24 20.40 13.24C21.59 13.24 22.79 11.98 23.32 10.79L23.14 10.65C22.79 11.47 21.64 12.74 20.76 12.74C20.54 12.74 20.34 12.66 20.34 12.32C20.34 11.73 21.04 10.81 21.04 9.95C21.04 8.76 19.61 8.53 19.61 8.01C19.61 7.95 19.77 7.59 19.77 7.49C19.77 7.39 19.77 7.15 19.57 7.15C19.42 7.15 18.98 7.55 18.98 8.11C18.98 8.25 19.04 8.36 19.12 8.44C18.72 9.63 18.24 10.61 17.99 11.10ZM24.81 8.13C23.86 8.13 22.79 11.00 22.79 12.07C22.79 12.73 23.14 13.24 23.87 13.24C24.96 13.24 26.08 12.36 26.63 10.75L26.50 10.61C25.70 12.21 24.98 12.75 24.35 12.75C23.88 12.75 23.66 12.59 23.66 11.91C23.66 10.60 25.12 8.90 25.12 8.44C25.12 8.25 24.98 8.13 24.81 8.13ZM25.55 6.83C26.00 6.83 26.46 6.43 26.46 6.08C26.46 5.75 26.28 5.64 26.00 5.64C25.55 5.64 24.98 5.98 24.98 6.37C24.98 6.69 25.24 6.83 25.55 6.83ZM25.97 11.76C25.97 12.60 26.40 13.59 27.72 13.59C28.52 13.59 29.22 13.23 29.51 12.43C30.35 12.31 31.12 11.79 31.47 10.77L31.35 10.63C30.80 11.68 30.23 12.10 29.58 12.21C29.64 12.00 29.67 11.77 29.67 11.52C29.67 10.23 28.94 9.07 28.94 8.15C28.94 7.83 29.02 7.63 29.02 7.53C29.02 7.43 28.95 7.35 28.80 7.35C28.53 7.35 28.25 7.62 28.25 8.30L28.25 8.47C27.90 9.21 27.43 9.88 26.87 10.50C26.71 10.67 25.97 10.65 25.97 11.76ZM28.76 11.54C28.76 11.82 28.73 12.01 28.70 12.19C27.85 12.01 27.24 11.42 26.96 10.82C27.38 10.40 27.89 9.72 28.32 9.00C28.46 9.77 28.76 10.65 28.76 11.54ZM27.75 13.10C27.02 13.10 26.60 12.42 26.60 11.75C26.60 11.45 26.68 11.27 26.91 11.26C27.20 11.73 27.85 12.26 28.63 12.42C28.42 13.03 27.97 13.10 27.75 13.10ZM34.55 12.33C34.55 12.84 34.87 13.22 35.52 13.22C36.60 13.22 37.62 12.15 38.21 10.78L38.02 10.61C37.46 11.83 36.47 12.85 35.84 12.85C35.60 12.85 35.42 12.70 35.42 12.32C35.42 11.63 36.02 10.84 36.02 9.97C36.02 9.35 35.73 8.71 34.96 8.71C33.71 8.71 32.77 10.42 32.12 12.33C32.10 12.21 32.09 12.07 32.09 11.86C32.09 11.10 32.26 9.93 32.61 9.10C34.26 8.11 35.83 5.07 35.83 3.77C35.83 3.39 35.70 2.88 35.36 2.88C34.15 2.88 31.18 9.28 31.18 11.96C31.18 12.70 31.40 13.41 31.75 13.41C32.55 13.41 33.07 9.55 34.45 9.55C34.75 9.55 34.99 9.73 34.99 10.22C34.99 10.89 34.55 11.75 34.55 12.33ZM35.29 4.02C35.34 4.02 35.35 4.05 35.35 4.13C35.35 4.84 34.08 7.52 32.79 8.55C33.49 6.27 35.01 4.02 35.29 4.02ZM43.82 3.23C44.30 3.23 44.51 3.49 44.51 3.86C44.51 4.66 43.58 6.03 43.01 6.68C43.12 6.92 43.29 7.00 43.44 7.00C44.21 7.00 45.07 5.11 45.07 4.02C45.07 3.15 44.53 2.81 43.78 2.81C41.12 2.81 38.02 6.99 38.02 10.68C38.02 12.39 38.79 14.10 40.78 14.10C42.66 14.10 44.18 12.59 45.12 10.75L44.93 10.61C44.18 12.21 42.60 13.62 41.12 13.62C39.70 13.62 39.14 12.31 39.14 10.92C39.14 7.77 41.80 3.23 43.82 3.23ZM48.57 9.91C47.88 10.92 46.49 12.96 45.63 12.96C45.37 12.96 45.25 12.80 45.25 12.42C45.25 11.06 46.82 8.46 48.13 8.46C48.64 8.46 48.82 8.82 48.82 9.24C48.82 9.39 48.79 9.58 48.75 9.73C49.15 9.73 49.43 9.59 49.43 9.13C49.43 8.50 48.89 8.08 48.16 8.08C46.34 8.08 44.28 10.71 44.28 12.38C44.28 13.16 44.73 13.54 45.32 13.54C46.00 13.54 46.62 12.99 47.43 11.91C47.40 12.07 47.39 12.21 47.39 12.32C47.39 12.81 47.71 13.30 48.40 13.30C49.39 13.30 50.58 12.26 51.17 10.75L51.03 10.61C50.19 12.10 49.29 12.82 48.79 12.82C48.45 12.82 48.31 12.49 48.31 12.21C48.31 11.54 49.13 10.58 49.13 10.26C49.13 10.05 48.73 9.94 48.57 9.91ZM53.49 10.89C53.49 11.75 53.86 13.41 54.92 13.41C55.90 13.41 57.01 12.11 57.41 10.74L57.27 10.60C56.70 11.87 56.00 12.88 55.20 12.88C54.46 12.88 54.15 11.38 54.11 11.07C54.66 11.07 56.10 10.64 56.10 9.44C56.10 8.75 55.54 8.19 54.85 8.19C53.45 8.19 52.30 10.63 51.72 12.11C51.72 11.14 52.02 9.62 52.64 8.11C54.29 7.11 55.50 5.08 55.50 3.79C55.50 3.29 55.31 2.88 55.06 2.88C54.07 2.88 50.82 9.07 50.82 12.00C50.82 12.64 50.83 13.31 51.31 13.31C51.48 13.31 51.69 13.23 51.79 13.06C51.95 12.75 52.93 8.92 54.59 8.92C54.95 8.92 55.29 9.16 55.29 9.55C55.29 10.50 53.91 10.89 53.49 10.89ZM54.98 4.02C55.01 4.02 55.02 4.05 55.02 4.14C55.02 4.86 54.17 6.51 52.88 7.55C53.69 5.67 54.70 4.02 54.98 4.02ZM61.25 8.69C61.25 8.01 60.82 7.84 60.38 7.84C58.73 7.84 56.83 10.21 56.83 11.87C56.83 12.78 57.40 13.50 58.53 13.50C59.92 13.50 61.38 12.42 62.13 10.74L61.96 10.61C61.26 11.96 60.02 13.09 58.83 13.09C57.96 13.09 57.72 12.49 57.72 11.91C57.72 11.77 57.74 11.59 57.78 11.41C59.37 11.26 61.25 10.12 61.25 8.69ZM60.34 8.27C60.58 8.27 60.63 8.39 60.63 8.60C60.63 9.80 58.84 10.79 57.85 11.14C58.23 9.81 59.44 8.27 60.34 8.27ZM61.42 11.76C61.42 12.60 61.85 13.59 63.17 13.59C63.97 13.59 64.67 13.23 64.96 12.43C65.80 12.31 66.57 11.79 66.92 10.77L66.79 10.63C66.25 11.68 65.67 12.10 65.03 12.21C65.09 12.00 65.11 11.77 65.11 11.52C65.11 10.23 64.39 9.07 64.39 8.15C64.39 7.83 64.47 7.63 64.47 7.53C64.47 7.43 64.40 7.35 64.25 7.35C63.98 7.35 63.70 7.62 63.70 8.30L63.70 8.47C63.35 9.21 62.87 9.88 62.31 10.50C62.16 10.67 61.42 10.65 61.42 11.76ZM64.20 11.54C64.20 11.82 64.18 12.01 64.15 12.19C63.29 12.01 62.69 11.42 62.41 10.82C62.83 10.40 63.34 9.72 63.77 9.00C63.91 9.77 64.20 10.65 64.20 11.54ZM63.20 13.10C62.47 13.10 62.05 12.42 62.05 11.75C62.05 11.45 62.13 11.27 62.36 11.26C62.65 11.73 63.29 12.26 64.08 12.42C63.87 13.03 63.42 13.10 63.20 13.10Z"></path></g><defs data-v-423bf9ae=""><linearGradient data-v-423bf9ae="" gradientTransform="rotate(25)" id="7c1e46ec-c137-43e9-82eb-e535e35fd304" x1="0%" y1="0%" x2="100%" y2="0%"><stop data-v-423bf9ae="" offset="0%" style="stop-color: rgb(117, 105, 161); stop-opacity: 1;"></stop><stop data-v-423bf9ae="" offset="100%" style="stop-color: rgb(198, 143, 192); stop-opacity: 1;"></stop></linearGradient></defs><g data-v-423bf9ae="" id="ae872377-a0c4-4483-948e-9bfc19ab1416" transform="matrix(1.0004785060882568,0,0,1.0004785060882568,0.9760746955871582,1.0000042915344238)" stroke="none" fill="url(#7c1e46ec-c137-43e9-82eb-e535e35fd304)"><path d="M50 49.948c-26.929 0-48.94-9.219-49.951-20.714L0 29.241l.696 8.015.08.921c.518 2.937 2.544 5.904 5.751 8.558 4.638 3.549 11.743 6.48 20.238 8.406 3.128.519 6.439.82 9.911.82 4.312 0 8.741-.464 13.167-1.381 19.731-4.089 43.768-9.644 49.387-18.863.385 16.539-20.759 23.462-49.23 23.462-25.836 0-47.081-8.876-49.147-20.126l1.76 20.254C3.536 70.435 24.38 79.179 50 79.179c26.038 0 45.984-8.665 47.212-20 0 12.279-20.296 21.538-47.212 21.538-25.698 0-45.372-8.374-47.244-19.754l.413 4.754v.062c.062 13.323 21.108 24.169 46.923 24.169 25.831 0 46.862-10.846 46.923-24.169v-.062l2.062-24.923.154-1.815.723-8.908.015-.108.023-.271a8.508 8.508 0 0 1-.592 2.048C95.672 42.041 74.941 49.948 50 49.948zM45.985 4.597l2.157 1.4.888-5.385-.323-.209a2.5 2.5 0 1 0-2.722 4.194z"></path><path d="M100 28.118h-.015c0-.169-.015-.323-.046-.492C99.215 17.379 81.769 8.918 59 7.133l1.277.846-.877 5.385-3.554-2.308s.692-4.092.708-4.092l.215-1.323-3.539-2.308s-.569 3.431-.923 5.415c-.108-.092-.2-.138-.261-.185l-.015-.015c-.015-.015-.046-.015-.062-.031.077.077.154.138.231.231 0 .015.108.123.492.461.323.277.631.569.954.862 1.092 1 2.169 2.077 3.2 3.138 2.661 2.8 4.923 5.615 5.831 7.477 0 .031.015.046.031.061.092.185.169.385.215.554.108.292.154.538.154.754 0 4.169-5 9.077-13.077 9.077s-13.077-4.908-13.077-9.077c0-3.908 6.831-4.554 7.062-15.108C19.246 8.225 0 17.318 0 28.318h.108C.523 39.21 23.523 48.025 50 48.025c24.046 0 45.369-7.2 49.4-16.677.354-.954.523-1.938.569-2.938H100v-.092c0-.046-.015-.108-.015-.154 0-.016.015-.031.015-.046zm-32.862-9.739l-3.554-2.292.892-5.385 3.554 2.292-.892 5.385zm7.739 5.031l-3.538-2.308.877-5.385 3.554 2.308-.893 5.385z"></path><path d="M51.923 8.487c.015.015.031.031.046.031-.046-.062-.092-.092-.138-.123.015.03.046.061.092.092z"></path></g><!----></svg>